<mxfile host="app.diagrams.net" agent="Mozilla/5.0 (Macintosh; Intel Mac OS X 10_15_7) AppleWebKit/537.36 (KHTML, like Gecko) Chrome/127.0.0.0 Safari/537.36" version="24.7.6">
  <diagram name="第 1 页" id="dpTXY2fJAkPe_KdnsqiX">
    <mxGraphModel dx="1203" dy="601" grid="1" gridSize="10" guides="1" tooltips="1" connect="1" arrows="1" fold="1" page="1" pageScale="1" pageWidth="1600" pageHeight="1200" math="0" shadow="0">
      <root>
        <mxCell id="0" />
        <mxCell id="1" parent="0" />
        <mxCell id="lWbpYfSbHIfbfXkLWrZO-10" style="edgeStyle=orthogonalEdgeStyle;rounded=0;sketch=1;hachureGap=4;jiggle=2;curveFitting=1;orthogonalLoop=1;jettySize=auto;html=1;exitX=1;exitY=0.5;exitDx=0;exitDy=0;fontFamily=Architects Daughter;fontSource=https%3A%2F%2Ffonts.googleapis.com%2Fcss%3Ffamily%3DArchitects%2BDaughter;" edge="1" parent="1" source="lWbpYfSbHIfbfXkLWrZO-1">
          <mxGeometry relative="1" as="geometry">
            <mxPoint x="880" y="377" as="targetPoint" />
          </mxGeometry>
        </mxCell>
        <mxCell id="lWbpYfSbHIfbfXkLWrZO-1" value="内网服务器-B" style="rounded=0;whiteSpace=wrap;html=1;sketch=1;curveFitting=1;jiggle=2;fillColor=#d5e8d4;strokeColor=#82b366;" vertex="1" parent="1">
          <mxGeometry x="600" y="357" width="120" height="40" as="geometry" />
        </mxCell>
        <mxCell id="lWbpYfSbHIfbfXkLWrZO-13" style="edgeStyle=orthogonalEdgeStyle;rounded=0;sketch=1;hachureGap=4;jiggle=2;curveFitting=1;orthogonalLoop=1;jettySize=auto;html=1;exitX=0;exitY=0.5;exitDx=0;exitDy=0;fontFamily=Architects Daughter;fontSource=https%3A%2F%2Ffonts.googleapis.com%2Fcss%3Ffamily%3DArchitects%2BDaughter;" edge="1" parent="1" source="lWbpYfSbHIfbfXkLWrZO-2">
          <mxGeometry relative="1" as="geometry">
            <mxPoint x="1000" y="377" as="targetPoint" />
          </mxGeometry>
        </mxCell>
        <mxCell id="lWbpYfSbHIfbfXkLWrZO-2" value="内网服务器-2" style="rounded=0;whiteSpace=wrap;html=1;sketch=1;curveFitting=1;jiggle=2;fillColor=#d5e8d4;strokeColor=#82b366;" vertex="1" parent="1">
          <mxGeometry x="1160" y="357" width="120" height="40" as="geometry" />
        </mxCell>
        <mxCell id="lWbpYfSbHIfbfXkLWrZO-4" value="公网服务器" style="rounded=0;whiteSpace=wrap;html=1;sketch=1;curveFitting=1;jiggle=2;fillColor=#d5e8d4;strokeColor=#82b366;" vertex="1" parent="1">
          <mxGeometry x="880" y="357" width="120" height="40" as="geometry" />
        </mxCell>
        <mxCell id="lWbpYfSbHIfbfXkLWrZO-9" style="edgeStyle=orthogonalEdgeStyle;rounded=0;sketch=1;hachureGap=4;jiggle=2;curveFitting=1;orthogonalLoop=1;jettySize=auto;html=1;exitX=1;exitY=0.5;exitDx=0;exitDy=0;entryX=0;entryY=0.5;entryDx=0;entryDy=0;fontFamily=Architects Daughter;fontSource=https%3A%2F%2Ffonts.googleapis.com%2Fcss%3Ffamily%3DArchitects%2BDaughter;" edge="1" parent="1" source="lWbpYfSbHIfbfXkLWrZO-5" target="lWbpYfSbHIfbfXkLWrZO-4">
          <mxGeometry relative="1" as="geometry" />
        </mxCell>
        <mxCell id="lWbpYfSbHIfbfXkLWrZO-5" value="内网服务器-A" style="rounded=0;whiteSpace=wrap;html=1;sketch=1;curveFitting=1;jiggle=2;fillColor=#d5e8d4;strokeColor=#82b366;" vertex="1" parent="1">
          <mxGeometry x="600" y="277" width="120" height="40" as="geometry" />
        </mxCell>
        <mxCell id="lWbpYfSbHIfbfXkLWrZO-11" style="edgeStyle=orthogonalEdgeStyle;rounded=0;sketch=1;hachureGap=4;jiggle=2;curveFitting=1;orthogonalLoop=1;jettySize=auto;html=1;exitX=1;exitY=0.5;exitDx=0;exitDy=0;entryX=0;entryY=0.5;entryDx=0;entryDy=0;fontFamily=Architects Daughter;fontSource=https%3A%2F%2Ffonts.googleapis.com%2Fcss%3Ffamily%3DArchitects%2BDaughter;" edge="1" parent="1" source="lWbpYfSbHIfbfXkLWrZO-6" target="lWbpYfSbHIfbfXkLWrZO-4">
          <mxGeometry relative="1" as="geometry" />
        </mxCell>
        <mxCell id="lWbpYfSbHIfbfXkLWrZO-6" value="内网服务器-C" style="rounded=0;whiteSpace=wrap;html=1;sketch=1;curveFitting=1;jiggle=2;fillColor=#d5e8d4;strokeColor=#82b366;" vertex="1" parent="1">
          <mxGeometry x="600" y="437" width="120" height="40" as="geometry" />
        </mxCell>
        <mxCell id="lWbpYfSbHIfbfXkLWrZO-12" style="edgeStyle=orthogonalEdgeStyle;rounded=0;sketch=1;hachureGap=4;jiggle=2;curveFitting=1;orthogonalLoop=1;jettySize=auto;html=1;exitX=0;exitY=0.5;exitDx=0;exitDy=0;entryX=1;entryY=0.5;entryDx=0;entryDy=0;fontFamily=Architects Daughter;fontSource=https%3A%2F%2Ffonts.googleapis.com%2Fcss%3Ffamily%3DArchitects%2BDaughter;" edge="1" parent="1" source="lWbpYfSbHIfbfXkLWrZO-7" target="lWbpYfSbHIfbfXkLWrZO-4">
          <mxGeometry relative="1" as="geometry" />
        </mxCell>
        <mxCell id="lWbpYfSbHIfbfXkLWrZO-7" value="内网服务器-1" style="rounded=0;whiteSpace=wrap;html=1;sketch=1;curveFitting=1;jiggle=2;fillColor=#d5e8d4;strokeColor=#82b366;" vertex="1" parent="1">
          <mxGeometry x="1160" y="277" width="120" height="40" as="geometry" />
        </mxCell>
        <mxCell id="lWbpYfSbHIfbfXkLWrZO-14" style="edgeStyle=orthogonalEdgeStyle;rounded=0;sketch=1;hachureGap=4;jiggle=2;curveFitting=1;orthogonalLoop=1;jettySize=auto;html=1;exitX=0;exitY=0.5;exitDx=0;exitDy=0;entryX=1;entryY=0.5;entryDx=0;entryDy=0;fontFamily=Architects Daughter;fontSource=https%3A%2F%2Ffonts.googleapis.com%2Fcss%3Ffamily%3DArchitects%2BDaughter;" edge="1" parent="1" source="lWbpYfSbHIfbfXkLWrZO-8" target="lWbpYfSbHIfbfXkLWrZO-4">
          <mxGeometry relative="1" as="geometry" />
        </mxCell>
        <mxCell id="lWbpYfSbHIfbfXkLWrZO-8" value="内网服务器-3" style="rounded=0;whiteSpace=wrap;html=1;sketch=1;curveFitting=1;jiggle=2;fillColor=#d5e8d4;strokeColor=#82b366;" vertex="1" parent="1">
          <mxGeometry x="1160" y="437" width="120" height="40" as="geometry" />
        </mxCell>
      </root>
    </mxGraphModel>
  </diagram>
</mxfile>
